<svg width="384" height="336" viewBox="0 0 384 336" fill="none" xmlns="http://www.w3.org/2000/svg">
<rect x="9.5" y="53.5" width="321" height="273" stroke="#FAFF09" stroke-width="15"/>
<path d="M0.93934 10.9393C0.353553 11.5251 0.353553 12.4749 0.93934 13.0607L10.4853 22.6066C11.0711 23.1924 12.0208 23.1924 12.6066 22.6066C13.1924 22.0208 13.1924 21.0711 12.6066 20.4853L4.12132 12L12.6066 3.51472C13.1924 2.92893 13.1924 1.97918 12.6066 1.3934C12.0208 0.807611 11.0711 0.807611 10.4853 1.3934L0.93934 10.9393ZM339.061 13.0606C339.646 12.4748 339.646 11.5251 339.061 10.9393L329.515 1.39337C328.929 0.807583 327.979 0.807583 327.393 1.39337C326.808 1.97916 326.808 2.9289 327.393 3.51469L335.879 12L327.393 20.4853C326.808 21.071 326.808 22.0208 327.393 22.6066C327.979 23.1924 328.929 23.1924 329.515 22.6066L339.061 13.0606ZM2 13.5L338 13.5L338 10.5L2 10.5L2 13.5Z" fill="#FAFF09"/>
<path d="M373.061 44.9393C372.475 44.3536 371.525 44.3536 370.939 44.9393L361.393 54.4853C360.808 55.0711 360.808 56.0208 361.393 56.6066C361.979 57.1924 362.929 57.1924 363.515 56.6066L372 48.1213L380.485 56.6066C381.071 57.1924 382.021 57.1924 382.607 56.6066C383.192 56.0208 383.192 55.0711 382.607 54.4853L373.061 44.9393ZM370.939 335.061C371.525 335.646 372.475 335.646 373.061 335.061L382.607 325.515C383.192 324.929 383.192 323.979 382.607 323.393C382.021 322.808 381.071 322.808 380.485 323.393L372 331.879L363.515 323.393C362.929 322.808 361.979 322.808 361.393 323.393C360.808 323.979 360.808 324.929 361.393 325.515L370.939 335.061ZM370.5 46L370.5 334L373.5 334L373.5 46L370.5 46Z" fill="#FAFF09"/>
<path d="M58.582 192.209C58.582 190.381 58.9336 188.734 59.6367 187.27C60.3516 185.805 61.3535 184.668 62.6426 183.859C63.9434 183.039 65.4141 182.629 67.0547 182.629C69.5859 182.629 71.6367 183.52 73.207 185.301C74.7773 187.07 75.5625 189.42 75.5625 192.35V192.789C75.5625 194.629 75.2051 196.287 74.4902 197.764C73.7871 199.229 72.791 200.359 71.502 201.156C70.2129 201.953 68.7422 202.352 67.0898 202.352C64.5703 202.352 62.5195 201.467 60.9375 199.697C59.3672 197.916 58.582 195.561 58.582 192.631V192.209ZM60.6914 192.789C60.6914 195.062 61.2773 196.932 62.4492 198.396C63.6328 199.85 65.1797 200.576 67.0898 200.576C68.9883 200.576 70.5234 199.85 71.6953 198.396C72.8789 196.932 73.4707 195.004 73.4707 192.613V192.209C73.4707 190.756 73.2012 189.426 72.6621 188.219C72.123 187.012 71.3672 186.08 70.3945 185.424C69.4219 184.756 68.3086 184.422 67.0547 184.422C65.1797 184.422 63.6504 185.16 62.4668 186.637C61.2832 188.102 60.6914 190.023 60.6914 192.402V192.789ZM93.1934 184.773H86.2676V202H84.1582V184.773H77.4961V182.98H93.1934V184.773ZM106.5 188.887L107.748 176.406H120.545V178.357H109.559L108.662 187.006C110.033 186.068 111.639 185.6 113.479 185.6C115.787 185.6 117.627 186.35 118.998 187.85C120.369 189.35 121.055 191.348 121.055 193.844C121.055 196.539 120.387 198.631 119.051 200.119C117.715 201.607 115.834 202.352 113.408 202.352C111.182 202.352 109.377 201.73 107.994 200.488C106.611 199.246 105.82 197.506 105.621 195.268H107.643C107.842 197.014 108.434 198.338 109.418 199.24C110.402 200.131 111.732 200.576 113.408 200.576C115.236 200.576 116.613 199.996 117.539 198.836C118.477 197.676 118.945 196.023 118.945 193.879C118.945 192.004 118.424 190.475 117.381 189.291C116.338 188.107 114.914 187.516 113.109 187.516C112.113 187.516 111.246 187.645 110.508 187.902C109.77 188.148 108.99 188.635 108.17 189.361L106.5 188.887ZM140.479 191.33C140.479 194.939 139.816 197.682 138.492 199.557C137.168 201.42 135.217 202.352 132.639 202.352C130.107 202.352 128.168 201.438 126.82 199.609C125.473 197.77 124.781 195.098 124.746 191.594V187.006C124.746 183.408 125.414 180.684 126.75 178.832C128.086 176.98 130.037 176.055 132.604 176.055C135.135 176.055 137.068 176.951 138.404 178.744C139.74 180.525 140.432 183.156 140.479 186.637V191.33ZM138.369 186.742C138.369 183.812 137.889 181.598 136.928 180.098C135.979 178.598 134.537 177.848 132.604 177.848C130.705 177.848 129.275 178.58 128.314 180.045C127.354 181.51 126.861 183.672 126.838 186.531V191.559C126.838 194.477 127.33 196.709 128.314 198.256C129.311 199.803 130.752 200.576 132.639 200.576C134.514 200.576 135.932 199.82 136.893 198.309C137.865 196.797 138.357 194.582 138.369 191.664V186.742ZM153.662 200.225L154.594 199.012C156.07 197.008 156.92 194.078 157.143 190.223L157.477 182.98H168.709V200.225H170.678V207.59H168.586V202H154.295V207.59H152.273L152.291 200.225H153.662ZM156.088 200.225H166.6V184.949H159.48L159.252 189.889C159.041 194.424 157.986 197.869 156.088 200.225ZM173.578 192.209C173.578 190.381 173.93 188.734 174.633 187.27C175.348 185.805 176.35 184.668 177.639 183.859C178.939 183.039 180.41 182.629 182.051 182.629C184.582 182.629 186.633 183.52 188.203 185.301C189.773 187.07 190.559 189.42 190.559 192.35V192.789C190.559 194.629 190.201 196.287 189.486 197.764C188.783 199.229 187.787 200.359 186.498 201.156C185.209 201.953 183.738 202.352 182.086 202.352C179.566 202.352 177.516 201.467 175.934 199.697C174.363 197.916 173.578 195.561 173.578 192.631V192.209ZM175.688 192.789C175.688 195.062 176.273 196.932 177.445 198.396C178.629 199.85 180.176 200.576 182.086 200.576C183.984 200.576 185.52 199.85 186.691 198.396C187.875 196.932 188.467 195.004 188.467 192.613V192.209C188.467 190.756 188.197 189.426 187.658 188.219C187.119 187.012 186.363 186.08 185.391 185.424C184.418 184.756 183.305 184.422 182.051 184.422C180.176 184.422 178.646 185.16 177.463 186.637C176.279 188.102 175.688 190.023 175.688 192.402V192.789ZM218.42 182.998C218.42 184.322 218.033 185.512 217.26 186.566C216.486 187.609 215.467 188.377 214.201 188.869C215.678 189.373 216.861 190.188 217.752 191.312C218.643 192.438 219.088 193.738 219.088 195.215C219.088 197.406 218.344 199.146 216.855 200.436C215.367 201.713 213.398 202.352 210.949 202.352C208.477 202.352 206.496 201.713 205.008 200.436C203.531 199.158 202.793 197.418 202.793 195.215C202.793 193.762 203.221 192.467 204.076 191.33C204.932 190.193 206.104 189.373 207.592 188.869C206.326 188.377 205.318 187.609 204.568 186.566C203.818 185.512 203.443 184.322 203.443 182.998C203.443 180.877 204.123 179.189 205.482 177.936C206.854 176.682 208.664 176.055 210.914 176.055C213.164 176.055 214.975 176.688 216.346 177.953C217.729 179.219 218.42 180.9 218.42 182.998ZM216.979 195.232C216.979 193.639 216.41 192.332 215.273 191.312C214.137 190.281 212.684 189.766 210.914 189.766C209.145 189.766 207.697 190.27 206.572 191.277C205.447 192.285 204.885 193.604 204.885 195.232C204.885 196.861 205.43 198.162 206.52 199.135C207.609 200.096 209.086 200.576 210.949 200.576C212.766 200.576 214.225 200.096 215.326 199.135C216.428 198.174 216.979 196.873 216.979 195.232ZM216.311 182.98C216.311 181.516 215.801 180.297 214.781 179.324C213.773 178.34 212.484 177.848 210.914 177.848C209.32 177.848 208.025 178.322 207.029 179.271C206.045 180.209 205.553 181.445 205.553 182.98C205.553 184.48 206.045 185.688 207.029 186.602C208.025 187.516 209.326 187.973 210.932 187.973C212.514 187.973 213.803 187.516 214.799 186.602C215.807 185.676 216.311 184.469 216.311 182.98ZM238.74 191.33C238.74 194.939 238.078 197.682 236.754 199.557C235.43 201.42 233.479 202.352 230.9 202.352C228.369 202.352 226.43 201.438 225.082 199.609C223.734 197.77 223.043 195.098 223.008 191.594V187.006C223.008 183.408 223.676 180.684 225.012 178.832C226.348 176.98 228.299 176.055 230.865 176.055C233.396 176.055 235.33 176.951 236.666 178.744C238.002 180.525 238.693 183.156 238.74 186.637V191.33ZM236.631 186.742C236.631 183.812 236.15 181.598 235.189 180.098C234.24 178.598 232.799 177.848 230.865 177.848C228.967 177.848 227.537 178.58 226.576 180.045C225.615 181.51 225.123 183.672 225.1 186.531V191.559C225.1 194.477 225.592 196.709 226.576 198.256C227.572 199.803 229.014 200.576 230.9 200.576C232.775 200.576 234.193 199.82 235.154 198.309C236.127 196.797 236.619 194.582 236.631 191.664V186.742ZM262.893 199.152L270.451 182.98H273.053V202H270.943V186.391L263.631 202H262.137L254.684 186.039V202H252.592V182.98H255.352L262.893 199.152ZM294.393 202H278.361V200.383L287.133 190.434C288.586 188.758 289.594 187.375 290.156 186.285C290.719 185.195 291 184.135 291 183.104C291 181.486 290.525 180.209 289.576 179.271C288.627 178.322 287.32 177.848 285.656 177.848C283.934 177.848 282.539 178.398 281.473 179.5C280.418 180.602 279.891 182.031 279.891 183.789H277.799C277.799 182.348 278.121 181.035 278.766 179.852C279.422 178.668 280.348 177.742 281.543 177.074C282.75 176.395 284.121 176.055 285.656 176.055C288 176.055 289.828 176.67 291.141 177.9C292.465 179.131 293.127 180.807 293.127 182.928C293.127 184.123 292.752 185.43 292.002 186.848C291.264 188.266 289.957 190.035 288.082 192.156L280.945 200.225H294.393V202Z" fill="black"/>
</svg>
