<svg width="384" height="336" viewBox="0 0 384 336" fill="none" xmlns="http://www.w3.org/2000/svg">
<rect x="9.5" y="53.5" width="321" height="273" stroke="#4F4F4F" stroke-width="15"/>
<path d="M0.93934 10.9393C0.353553 11.5251 0.353553 12.4749 0.93934 13.0607L10.4853 22.6066C11.0711 23.1924 12.0208 23.1924 12.6066 22.6066C13.1924 22.0208 13.1924 21.0711 12.6066 20.4853L4.12132 12L12.6066 3.51472C13.1924 2.92893 13.1924 1.97918 12.6066 1.3934C12.0208 0.807611 11.0711 0.807611 10.4853 1.3934L0.93934 10.9393ZM339.061 13.0606C339.646 12.4748 339.646 11.5251 339.061 10.9393L329.515 1.39337C328.929 0.807583 327.979 0.807583 327.393 1.39337C326.808 1.97916 326.808 2.9289 327.393 3.51469L335.879 12L327.393 20.4853C326.808 21.071 326.808 22.0208 327.393 22.6066C327.979 23.1924 328.929 23.1924 329.515 22.6066L339.061 13.0606ZM2 13.5L338 13.5L338 10.5L2 10.5L2 13.5Z" fill="#4F4F4F"/>
<path d="M373.061 44.9393C372.475 44.3536 371.525 44.3536 370.939 44.9393L361.393 54.4853C360.808 55.0711 360.808 56.0208 361.393 56.6066C361.979 57.1924 362.929 57.1924 363.515 56.6066L372 48.1213L380.485 56.6066C381.071 57.1924 382.021 57.1924 382.607 56.6066C383.192 56.0208 383.192 55.0711 382.607 54.4853L373.061 44.9393ZM370.939 335.061C371.525 335.646 372.475 335.646 373.061 335.061L382.607 325.515C383.192 324.929 383.192 323.979 382.607 323.393C382.021 322.808 381.071 322.808 380.485 323.393L372 331.879L363.515 323.393C362.929 322.808 361.979 322.808 361.393 323.393C360.808 323.979 360.808 324.929 361.393 325.515L370.939 335.061ZM370.5 46L370.5 334L373.5 334L373.5 46L370.5 46Z" fill="#4F4F4F"/>
<path d="M42.582 192.209C42.582 190.381 42.9336 188.734 43.6367 187.27C44.3516 185.805 45.3535 184.668 46.6426 183.859C47.9434 183.039 49.4141 182.629 51.0547 182.629C53.5859 182.629 55.6367 183.52 57.207 185.301C58.7773 187.07 59.5625 189.42 59.5625 192.35V192.789C59.5625 194.629 59.2051 196.287 58.4902 197.764C57.7871 199.229 56.791 200.359 55.502 201.156C54.2129 201.953 52.7422 202.352 51.0898 202.352C48.5703 202.352 46.5195 201.467 44.9375 199.697C43.3672 197.916 42.582 195.561 42.582 192.631V192.209ZM44.6914 192.789C44.6914 195.062 45.2773 196.932 46.4492 198.396C47.6328 199.85 49.1797 200.576 51.0898 200.576C52.9883 200.576 54.5234 199.85 55.6953 198.396C56.8789 196.932 57.4707 195.004 57.4707 192.613V192.209C57.4707 190.756 57.2012 189.426 56.6621 188.219C56.123 187.012 55.3672 186.08 54.3945 185.424C53.4219 184.756 52.3086 184.422 51.0547 184.422C49.1797 184.422 47.6504 185.16 46.4668 186.637C45.2832 188.102 44.6914 190.023 44.6914 192.402V192.789ZM77.1934 184.773H70.2676V202H68.1582V184.773H61.4961V182.98H77.1934V184.773ZM104.158 182.998C104.158 184.322 103.771 185.512 102.998 186.566C102.225 187.609 101.205 188.377 99.9395 188.869C101.416 189.373 102.6 190.188 103.49 191.312C104.381 192.438 104.826 193.738 104.826 195.215C104.826 197.406 104.082 199.146 102.594 200.436C101.105 201.713 99.1367 202.352 96.6875 202.352C94.2148 202.352 92.2344 201.713 90.7461 200.436C89.2695 199.158 88.5312 197.418 88.5312 195.215C88.5312 193.762 88.959 192.467 89.8145 191.33C90.6699 190.193 91.8418 189.373 93.3301 188.869C92.0645 188.377 91.0566 187.609 90.3066 186.566C89.5566 185.512 89.1816 184.322 89.1816 182.998C89.1816 180.877 89.8613 179.189 91.2207 177.936C92.5918 176.682 94.4023 176.055 96.6523 176.055C98.9023 176.055 100.713 176.688 102.084 177.953C103.467 179.219 104.158 180.9 104.158 182.998ZM102.717 195.232C102.717 193.639 102.148 192.332 101.012 191.312C99.875 190.281 98.4219 189.766 96.6523 189.766C94.8828 189.766 93.4355 190.27 92.3105 191.277C91.1855 192.285 90.623 193.604 90.623 195.232C90.623 196.861 91.168 198.162 92.2578 199.135C93.3477 200.096 94.8242 200.576 96.6875 200.576C98.5039 200.576 99.9629 200.096 101.064 199.135C102.166 198.174 102.717 196.873 102.717 195.232ZM102.049 182.98C102.049 181.516 101.539 180.297 100.52 179.324C99.5117 178.34 98.2227 177.848 96.6523 177.848C95.0586 177.848 93.7637 178.322 92.7676 179.271C91.7832 180.209 91.291 181.445 91.291 182.98C91.291 184.48 91.7832 185.688 92.7676 186.602C93.7637 187.516 95.0645 187.973 96.6699 187.973C98.252 187.973 99.541 187.516 100.537 186.602C101.545 185.676 102.049 184.469 102.049 182.98ZM124.479 191.33C124.479 194.939 123.816 197.682 122.492 199.557C121.168 201.42 119.217 202.352 116.639 202.352C114.107 202.352 112.168 201.438 110.82 199.609C109.473 197.77 108.781 195.098 108.746 191.594V187.006C108.746 183.408 109.414 180.684 110.75 178.832C112.086 176.98 114.037 176.055 116.604 176.055C119.135 176.055 121.068 176.951 122.404 178.744C123.74 180.525 124.432 183.156 124.479 186.637V191.33ZM122.369 186.742C122.369 183.812 121.889 181.598 120.928 180.098C119.979 178.598 118.537 177.848 116.604 177.848C114.705 177.848 113.275 178.58 112.314 180.045C111.354 181.51 110.861 183.672 110.838 186.531V191.559C110.838 194.477 111.33 196.709 112.314 198.256C113.311 199.803 114.752 200.576 116.639 200.576C118.514 200.576 119.932 199.82 120.893 198.309C121.865 196.797 122.357 194.582 122.369 191.664V186.742ZM137.662 200.225L138.594 199.012C140.07 197.008 140.92 194.078 141.143 190.223L141.477 182.98H152.709V200.225H154.678V207.59H152.586V202H138.295V207.59H136.273L136.291 200.225H137.662ZM140.088 200.225H150.6V184.949H143.48L143.252 189.889C143.041 194.424 141.986 197.869 140.088 200.225ZM157.578 192.209C157.578 190.381 157.93 188.734 158.633 187.27C159.348 185.805 160.35 184.668 161.639 183.859C162.939 183.039 164.41 182.629 166.051 182.629C168.582 182.629 170.633 183.52 172.203 185.301C173.773 187.07 174.559 189.42 174.559 192.35V192.789C174.559 194.629 174.201 196.287 173.486 197.764C172.783 199.229 171.787 200.359 170.498 201.156C169.209 201.953 167.738 202.352 166.086 202.352C163.566 202.352 161.516 201.467 159.934 199.697C158.363 197.916 157.578 195.561 157.578 192.631V192.209ZM159.688 192.789C159.688 195.062 160.273 196.932 161.445 198.396C162.629 199.85 164.176 200.576 166.086 200.576C167.984 200.576 169.52 199.85 170.691 198.396C171.875 196.932 172.467 195.004 172.467 192.613V192.209C172.467 190.756 172.197 189.426 171.658 188.219C171.119 187.012 170.363 186.08 169.391 185.424C168.418 184.756 167.305 184.422 166.051 184.422C164.176 184.422 162.646 185.16 161.463 186.637C160.279 188.102 159.688 190.023 159.688 192.402V192.789ZM197.129 202H195.02V178.938L188.059 181.521V179.553L196.777 176.318H197.129V202ZM223.338 202H207.307V200.383L216.078 190.434C217.531 188.758 218.539 187.375 219.102 186.285C219.664 185.195 219.945 184.135 219.945 183.104C219.945 181.486 219.471 180.209 218.521 179.271C217.572 178.322 216.266 177.848 214.602 177.848C212.879 177.848 211.484 178.398 210.418 179.5C209.363 180.602 208.836 182.031 208.836 183.789H206.744C206.744 182.348 207.066 181.035 207.711 179.852C208.367 178.668 209.293 177.742 210.488 177.074C211.695 176.395 213.066 176.055 214.602 176.055C216.945 176.055 218.773 176.67 220.086 177.9C221.41 179.131 222.072 180.807 222.072 182.928C222.072 184.123 221.697 185.43 220.947 186.848C220.209 188.266 218.902 190.035 217.027 192.156L209.891 200.225H223.338V202ZM242.709 191.33C242.709 194.939 242.047 197.682 240.723 199.557C239.398 201.42 237.447 202.352 234.869 202.352C232.338 202.352 230.398 201.438 229.051 199.609C227.703 197.77 227.012 195.098 226.977 191.594V187.006C226.977 183.408 227.645 180.684 228.98 178.832C230.316 176.98 232.268 176.055 234.834 176.055C237.365 176.055 239.299 176.951 240.635 178.744C241.971 180.525 242.662 183.156 242.709 186.637V191.33ZM240.6 186.742C240.6 183.812 240.119 181.598 239.158 180.098C238.209 178.598 236.768 177.848 234.834 177.848C232.936 177.848 231.506 178.58 230.545 180.045C229.584 181.51 229.092 183.672 229.068 186.531V191.559C229.068 194.477 229.561 196.709 230.545 198.256C231.541 199.803 232.982 200.576 234.869 200.576C236.744 200.576 238.162 199.82 239.123 198.309C240.096 196.797 240.588 194.582 240.6 191.664V186.742ZM266.861 199.152L274.42 182.98H277.021V202H274.912V186.391L267.6 202H266.105L258.652 186.039V202H256.561V182.98H259.32L266.861 199.152ZM298.361 202H282.33V200.383L291.102 190.434C292.555 188.758 293.562 187.375 294.125 186.285C294.688 185.195 294.969 184.135 294.969 183.104C294.969 181.486 294.494 180.209 293.545 179.271C292.596 178.322 291.289 177.848 289.625 177.848C287.902 177.848 286.508 178.398 285.441 179.5C284.387 180.602 283.859 182.031 283.859 183.789H281.768C281.768 182.348 282.09 181.035 282.734 179.852C283.391 178.668 284.316 177.742 285.512 177.074C286.719 176.395 288.09 176.055 289.625 176.055C291.969 176.055 293.797 176.67 295.109 177.9C296.434 179.131 297.096 180.807 297.096 182.928C297.096 184.123 296.721 185.43 295.971 186.848C295.232 188.266 293.926 190.035 292.051 192.156L284.914 200.225H298.361V202Z" fill="black"/>
</svg>
