<svg width="384" height="336" viewBox="0 0 384 336" fill="none" xmlns="http://www.w3.org/2000/svg">
<rect x="9.5" y="53.5" width="321" height="273" stroke="#4F4F4F" stroke-width="15"/>
<path d="M0.93934 10.9393C0.353553 11.5251 0.353553 12.4749 0.93934 13.0607L10.4853 22.6066C11.0711 23.1924 12.0208 23.1924 12.6066 22.6066C13.1924 22.0208 13.1924 21.0711 12.6066 20.4853L4.12132 12L12.6066 3.51472C13.1924 2.92893 13.1924 1.97918 12.6066 1.3934C12.0208 0.807611 11.0711 0.807611 10.4853 1.3934L0.93934 10.9393ZM339.061 13.0606C339.646 12.4748 339.646 11.5251 339.061 10.9393L329.515 1.39337C328.929 0.807583 327.979 0.807583 327.393 1.39337C326.808 1.97916 326.808 2.9289 327.393 3.51469L335.879 12L327.393 20.4853C326.808 21.071 326.808 22.0208 327.393 22.6066C327.979 23.1924 328.929 23.1924 329.515 22.6066L339.061 13.0606ZM2 13.5L338 13.5L338 10.5L2 10.5L2 13.5Z" fill="#4F4F4F"/>
<path d="M373.061 44.9393C372.475 44.3536 371.525 44.3536 370.939 44.9393L361.393 54.4853C360.808 55.0711 360.808 56.0208 361.393 56.6066C361.979 57.1924 362.929 57.1924 363.515 56.6066L372 48.1213L380.485 56.6066C381.071 57.1924 382.021 57.1924 382.607 56.6066C383.192 56.0208 383.192 55.0711 382.607 54.4853L373.061 44.9393ZM370.939 335.061C371.525 335.646 372.475 335.646 373.061 335.061L382.607 325.515C383.192 324.929 383.192 323.979 382.607 323.393C382.021 322.808 381.071 322.808 380.485 323.393L372 331.879L363.515 323.393C362.929 322.808 361.979 322.808 361.393 323.393C360.808 323.979 360.808 324.929 361.393 325.515L370.939 335.061ZM370.5 46L370.5 334L373.5 334L373.5 46L370.5 46Z" fill="#4F4F4F"/>
<path d="M70.4062 184.246C72.8203 184.246 74.7773 185.037 76.2773 186.619C77.7773 188.189 78.5273 190.275 78.5273 192.877V193.334C78.5273 195.057 78.1816 196.609 77.4902 197.992C76.8105 199.363 75.8262 200.436 74.5371 201.209C73.2598 201.971 71.7891 202.352 70.125 202.352C67.6172 202.352 65.584 201.52 64.0254 199.855C62.4785 198.18 61.7051 195.947 61.7051 193.158V191.471C61.7051 187.533 62.4551 184.387 63.9551 182.031C65.4551 179.676 67.5879 178.27 70.3535 177.812C72.0996 177.531 73.3242 177.15 74.0273 176.67C74.7422 176.189 75.0996 175.533 75.0996 174.701H76.9102C76.9102 175.686 76.7051 176.5 76.2949 177.145C75.8848 177.789 75.2695 178.311 74.4492 178.709C73.6289 179.096 72.375 179.424 70.6875 179.693C68.7539 179.998 67.1953 180.824 66.0117 182.172C64.8398 183.508 64.0781 185.301 63.7266 187.551C64.4766 186.566 65.4141 185.77 66.5391 185.16C67.6758 184.551 68.9648 184.246 70.4062 184.246ZM63.8145 192.895V193.334C63.8145 195.479 64.3945 197.225 65.5547 198.572C66.7148 199.908 68.2383 200.576 70.125 200.576C72.0234 200.576 73.5469 199.902 74.6953 198.555C75.8438 197.195 76.418 195.414 76.418 193.211V192.754C76.418 190.773 75.832 189.156 74.6602 187.902C73.5 186.648 71.9766 186.021 70.0898 186.021C68.2031 186.021 66.6855 186.66 65.5371 187.938C64.3887 189.203 63.8145 190.855 63.8145 192.895ZM81.4102 192.209C81.4102 190.381 81.7617 188.734 82.4648 187.27C83.1797 185.805 84.1816 184.668 85.4707 183.859C86.7715 183.039 88.2422 182.629 89.8828 182.629C92.4141 182.629 94.4648 183.52 96.0352 185.301C97.6055 187.07 98.3906 189.42 98.3906 192.35V192.789C98.3906 194.629 98.0332 196.287 97.3184 197.764C96.6152 199.229 95.6191 200.359 94.3301 201.156C93.041 201.953 91.5703 202.352 89.918 202.352C87.3984 202.352 85.3477 201.467 83.7656 199.697C82.1953 197.916 81.4102 195.561 81.4102 192.631V192.209ZM83.5195 192.789C83.5195 195.062 84.1055 196.932 85.2773 198.396C86.4609 199.85 88.0078 200.576 89.918 200.576C91.8164 200.576 93.3516 199.85 94.5234 198.396C95.707 196.932 96.2988 195.004 96.2988 192.613V192.209C96.2988 190.756 96.0293 189.426 95.4902 188.219C94.9512 187.012 94.1953 186.08 93.2227 185.424C92.25 184.756 91.1367 184.422 89.8828 184.422C88.0078 184.422 86.4785 185.16 85.2949 186.637C84.1113 188.102 83.5195 190.023 83.5195 192.402V192.789ZM117.094 182.98V202H114.984V184.791H107.197L106.863 191.91C106.723 194.547 106.459 196.562 106.072 197.957C105.686 199.34 105.111 200.359 104.35 201.016C103.588 201.672 102.574 202 101.309 202H100.5V200.137L101.15 200.102C102.357 200.078 103.225 199.492 103.752 198.344C104.279 197.195 104.625 195.145 104.789 192.191L105.176 182.98H117.094ZM130.119 202.352C128.502 202.352 127.037 201.953 125.725 201.156C124.424 200.359 123.41 199.252 122.684 197.834C121.957 196.404 121.594 194.805 121.594 193.035V192.279C121.594 190.451 121.945 188.805 122.648 187.34C123.363 185.875 124.354 184.727 125.619 183.895C126.885 183.051 128.256 182.629 129.732 182.629C132.041 182.629 133.869 183.42 135.217 185.002C136.576 186.572 137.256 188.723 137.256 191.453V192.631H123.686V193.035C123.686 195.191 124.301 196.99 125.531 198.432C126.773 199.861 128.332 200.576 130.207 200.576C131.332 200.576 132.322 200.371 133.178 199.961C134.045 199.551 134.83 198.895 135.533 197.992L136.852 198.994C135.305 201.232 133.061 202.352 130.119 202.352ZM129.732 184.422C128.15 184.422 126.814 185.002 125.725 186.162C124.646 187.322 123.99 188.881 123.756 190.838H135.164V190.609C135.105 188.781 134.584 187.293 133.6 186.145C132.615 184.996 131.326 184.422 129.732 184.422ZM148.717 202.352C147.1 202.352 145.635 201.953 144.322 201.156C143.021 200.359 142.008 199.252 141.281 197.834C140.555 196.404 140.191 194.805 140.191 193.035V192.279C140.191 190.451 140.543 188.805 141.246 187.34C141.961 185.875 142.951 184.727 144.217 183.895C145.482 183.051 146.854 182.629 148.33 182.629C150.639 182.629 152.467 183.42 153.814 185.002C155.174 186.572 155.854 188.723 155.854 191.453V192.631H142.283V193.035C142.283 195.191 142.898 196.99 144.129 198.432C145.371 199.861 146.93 200.576 148.805 200.576C149.93 200.576 150.92 200.371 151.775 199.961C152.643 199.551 153.428 198.895 154.131 197.992L155.449 198.994C153.902 201.232 151.658 202.352 148.717 202.352ZM148.33 184.422C146.748 184.422 145.412 185.002 144.322 186.162C143.244 187.322 142.588 188.881 142.354 190.838H153.762V190.609C153.703 188.781 153.182 187.293 152.197 186.145C151.213 184.996 149.924 184.422 148.33 184.422ZM178.16 202H176.051V178.938L169.09 181.521V179.553L177.809 176.318H178.16V202ZM204.369 202H188.338V200.383L197.109 190.434C198.562 188.758 199.57 187.375 200.133 186.285C200.695 185.195 200.977 184.135 200.977 183.104C200.977 181.486 200.502 180.209 199.553 179.271C198.604 178.322 197.297 177.848 195.633 177.848C193.91 177.848 192.516 178.398 191.449 179.5C190.395 180.602 189.867 182.031 189.867 183.789H187.775C187.775 182.348 188.098 181.035 188.742 179.852C189.398 178.668 190.324 177.742 191.52 177.074C192.727 176.395 194.098 176.055 195.633 176.055C197.977 176.055 199.805 176.67 201.117 177.9C202.441 179.131 203.104 180.807 203.104 182.928C203.104 184.123 202.729 185.43 201.979 186.848C201.24 188.266 199.934 190.035 198.059 192.156L190.922 200.225H204.369V202ZM223.74 191.33C223.74 194.939 223.078 197.682 221.754 199.557C220.43 201.42 218.479 202.352 215.9 202.352C213.369 202.352 211.43 201.438 210.082 199.609C208.734 197.77 208.043 195.098 208.008 191.594V187.006C208.008 183.408 208.676 180.684 210.012 178.832C211.348 176.98 213.299 176.055 215.865 176.055C218.396 176.055 220.33 176.951 221.666 178.744C223.002 180.525 223.693 183.156 223.74 186.637V191.33ZM221.631 186.742C221.631 183.812 221.15 181.598 220.189 180.098C219.24 178.598 217.799 177.848 215.865 177.848C213.967 177.848 212.537 178.58 211.576 180.045C210.615 181.51 210.123 183.672 210.1 186.531V191.559C210.1 194.477 210.592 196.709 211.576 198.256C212.572 199.803 214.014 200.576 215.9 200.576C217.775 200.576 219.193 199.82 220.154 198.309C221.127 196.797 221.619 194.582 221.631 191.664V186.742ZM247.893 199.152L255.451 182.98H258.053V202H255.943V186.391L248.631 202H247.137L239.684 186.039V202H237.592V182.98H240.352L247.893 199.152ZM279.393 202H263.361V200.383L272.133 190.434C273.586 188.758 274.594 187.375 275.156 186.285C275.719 185.195 276 184.135 276 183.104C276 181.486 275.525 180.209 274.576 179.271C273.627 178.322 272.32 177.848 270.656 177.848C268.934 177.848 267.539 178.398 266.473 179.5C265.418 180.602 264.891 182.031 264.891 183.789H262.799C262.799 182.348 263.121 181.035 263.766 179.852C264.422 178.668 265.348 177.742 266.543 177.074C267.75 176.395 269.121 176.055 270.656 176.055C273 176.055 274.828 176.67 276.141 177.9C277.465 179.131 278.127 180.807 278.127 182.928C278.127 184.123 277.752 185.43 277.002 186.848C276.264 188.266 274.957 190.035 273.082 192.156L265.945 200.225H279.393V202Z" fill="black"/>
</svg>
